<svg version="1.1" viewBox="0 0 640 400" xmlns="http://www.w3.org/2000/svg" xmlns:xlink="http://www.w3.org/1999/xlink" xmlns:svgjs="http://svgjs.dev/svgjs" matcher="0.3421860172798803"><g viewBox="0 0 640 400" matcher="0.3421860172798803"><g matcher="0.3421860172798803"><g matcher="0.3421860172798803"><g matcher="0.3421860172798803"><svg viewBox="0 0 640 400" data-background-color="#4b4949" preserveAspectRatio="xMidYMid meet" height="400" width="640" xmlns="http://www.w3.org/2000/svg" xmlns:xlink="http://www.w3.org/1999/xlink"><rect width="640" height="400" x="0" y="0" opacity="1" fill="#4b4949" data-fill-palette-color="background" id="background"></rect><g id="tight-bounds" transform="matrix(1,0,0,1,122.24000000000001,91.82276157369294)"><svg viewBox="0 0 395.52 216.3544768526141" height="216.3544768526141" width="395.52"><g><svg viewBox="0 0 397.4975999999999 217.43624923687716" height="216.3544768526141" width="395.52"><g><rect width="397.4975999999999" height="3.7803686951714885" x="0" y="117.30868084164248" fill="#ffffff" opacity="1" stroke-width="0" stroke="transparent" fill-opacity="1" class="rect-borderrectangle-0" data-fill-palette-color="primary" rx="1%" id="borderrectangle-0" data-palette-color="#ffffff"></rect></g><g><rect width="397.4975999999999" height="3.7803686951714885" x="0" y="126.03717610117457" fill="#ffffff" opacity="1" stroke-width="0" stroke="transparent" fill-opacity="1" class="rect-borderrectangle-1" data-fill-palette-color="primary" rx="1%" id="borderrectangle-1" data-palette-color="#ffffff"></rect></g><g transform="matrix(1,0,0,1,0.9887999999999693,139.71379792506724)"><svg viewBox="0 0 395.52 77.72245131180992" height="77.72245131180992" width="395.52"><g id="textblocktransform"><svg viewBox="0 0 395.52 77.72245131180992" height="77.72245131180992" width="395.52" id="textblock"><g><svg viewBox="0 0 395.52 41.919776380153735" height="41.919776380153735" width="395.52"><g transform="matrix(1,0,0,1,0,0)"><svg width="395.52" viewBox="0.4000000059604645 -35.5 429.260009765625 45.5" height="41.919776380153735" data-palette-color="#ffffff"><path d="M6.65-33.5L6.65-35 26.9-35 14.4-15 14.4 0 12.9 0 12.9-15 0.4-35 2.15-35 13.65-16.65 24.2-33.5 6.65-33.5ZM31.55-29L33.05-29 33.05-14.5Q33.05-7.05 35.42-4.03 37.8-1 41.95-1 46.1-1 48.47-4.03 50.85-7.05 50.85-14.5L50.85-14.5 50.85-29 52.35-29 52.35-14.5Q52.35 0.5 41.95 0.5 31.55 0.5 31.55-14.5L31.55-14.5 31.55-29ZM75.34-19.5L73-19.5 79.64-25.05Q77.44-28 71.75-28L71.75-28Q69.25-28 67.55-27.48 65.84-26.95 64.42-25.53 62.99-24.1 62.3-21.38 61.59-18.65 61.59-14.5 61.59-10.35 62.3-7.63 62.99-4.9 64.42-3.48 65.84-2.05 67.55-1.53 69.25-1 71.75-1L71.75-1Q77.39-1 79.59-3.9L79.59-3.9 79.59-12.75 81.09-12.75 81.09 0.45Q81.09 10 72.34 10L72.34 10 66.5 10 66.5 8.5 72.34 8.5Q76.09 8.5 77.84 6.53 79.59 4.55 79.59-1L79.59-1 79.59-1.75Q76.89 0.5 71.75 0.5L71.75 0.5Q65.5 0.5 62.8-3.05 60.09-6.6 60.09-14.5 60.09-22.4 62.8-25.95 65.5-29.5 71.75-29.5L71.75-29.5Q79-29.5 81.59-24.75L81.59-24.75 75.34-19.5ZM89.84 0L89.84-29 91.34-29 91.34 0 89.84 0ZM115.44-27.48Q113.74-28 111.24-28 108.74-28 107.04-27.48 105.34-26.95 103.92-25.53 102.49-24.1 101.79-21.38 101.09-18.65 101.09-14.5 101.09-10.35 101.79-7.63 102.49-4.9 103.92-3.48 105.34-2.05 107.04-1.53 108.74-1 111.24-1 113.74-1 115.44-1.53 117.14-2.05 118.56-3.48 119.99-4.9 120.69-7.63 121.39-10.35 121.39-14.5 121.39-18.65 120.69-21.38 119.99-24.1 118.56-25.53 117.14-26.95 115.44-27.48ZM120.19-3.05Q117.49 0.5 111.24 0.5 104.99 0.5 102.29-3.05 99.59-6.6 99.59-14.5 99.59-22.4 102.29-25.95 104.99-29.5 111.24-29.5 117.49-29.5 120.19-25.95 122.89-22.4 122.89-14.5 122.89-6.6 120.19-3.05ZM149.14-29L149.14 0 147.64 0 147.64-14.5 132.64-14.5 132.64 0 131.14 0 131.14-29 132.64-29 132.64-16 147.64-16 147.64-29 149.14-29ZM193.93-7.05L195.28-6.4Q193.93-3.1 191.48-1.3 189.03 0.5 184.13 0.5L184.13 0.5Q177.98 0.5 175.23-3.28 172.48-7.05 172.48-15.05L172.48-15.05 172.48-19.95Q172.48-27.95 175.23-31.73 177.98-35.5 184.13-35.5L184.13-35.5Q189.03-35.5 191.48-33.7 193.93-31.9 195.28-28.6L195.28-28.6 193.93-27.95Q192.78-30.85 190.68-32.43 188.58-34 184.13-34L184.13-34Q181.68-34 179.93-33.38 178.18-32.75 176.78-31.25 175.38-29.75 174.68-26.93 173.98-24.1 173.98-19.95L173.98-19.95 173.98-15.05Q173.98-10.9 174.68-8.08 175.38-5.25 176.78-3.75 178.18-2.25 179.93-1.63 181.68-1 184.13-1L184.13-1Q188.58-1 190.68-2.58 192.78-4.15 193.93-7.05L193.93-7.05ZM205.38 0L205.38-1.5 221.68-1.5 211.43-25.65 200.53 0 198.93 0 211.43-29.5 223.93 0 205.38 0ZM241.83-14.55L241.83-14.55 248.63 0 246.98 0 239.98-15Q240.08-15.05 240.85-15.43 241.63-15.8 241.93-15.98 242.23-16.15 242.93-16.6 243.63-17.05 243.98-17.48 244.33-17.9 244.75-18.48 245.18-19.05 245.38-19.78 245.58-20.5 245.58-21.35L245.58-21.35Q245.58-24.5 242.58-26 239.58-27.5 235.13-27.5L235.13-27.5 231.13-27.5 231.13 0 229.63 0 229.63-29 235.13-29Q241.03-29 244.05-26.95 247.08-24.9 247.08-21.35L247.08-21.35Q247.08-19.05 245.53-17.28 243.98-15.5 241.83-14.55ZM259.23 0L259.23 0 255.43 0 255.43-29 259.23-29Q266.63-29 271.03-25.1 275.43-21.2 275.43-14.5 275.43-7.8 271.03-3.9 266.63 0 259.23 0ZM256.93-1.5L259.23-1.5Q265.98-1.5 269.95-4.95 273.93-8.4 273.93-14.5 273.93-20.6 269.95-24.05 265.98-27.5 259.23-27.5L259.23-27.5 256.93-27.5 256.93-1.5ZM319.77-28.5L318.37-27.95Q317.22-30.85 315.12-32.43 313.02-34 308.57-34L308.57-34Q306.12-34 304.37-33.38 302.62-32.75 301.22-31.25 299.82-29.75 299.12-26.93 298.42-24.1 298.42-19.95L298.42-19.95 298.42-15.05Q298.42-10.9 299.12-8.08 299.82-5.25 301.22-3.75 302.62-2.25 304.37-1.63 306.12-1 308.57-1L308.57-1Q313.07-1 315.72-2.93 318.37-4.85 318.37-7.05L318.37-7.05 318.37-15.5 312.22-15.5 312.22-17 320.17-17 320.17-7.55Q320.17-4.2 317.14-1.85 314.12 0.5 308.57 0.5L308.57 0.5Q302.42 0.5 299.67-3.28 296.92-7.05 296.92-15.05L296.92-15.05 296.92-19.95Q296.92-27.95 299.67-31.73 302.42-35.5 308.57-35.5L308.57-35.5Q313.52-35.5 315.97-33.68 318.42-31.85 319.77-28.5L319.77-28.5ZM328.07-29L329.57-29 329.57-14.5Q329.57-7.05 331.94-4.03 334.32-1 338.47-1 342.62-1 344.99-4.03 347.37-7.05 347.37-14.5L347.37-14.5 347.37-29 348.87-29 348.87-14.5Q348.87 0.5 338.47 0.5 328.07 0.5 328.07-14.5L328.07-14.5 328.07-29ZM376.17-3.95L377.26-2.95Q374.51 0.5 368.26 0.5 362.01 0.5 359.31-3.05 356.62-6.6 356.62-14.5 356.62-22.4 359.31-25.95 362.01-29.5 368.26-29.5L368.26-29.5Q375.51-29.5 378.12-24.75L378.12-24.75 365.87-14.5 363.51-14.5 376.17-25.05Q373.97-28 368.26-28L368.26-28Q365.76-28 364.06-27.48 362.37-26.95 360.94-25.53 359.51-24.1 358.81-21.38 358.12-18.65 358.12-14.5 358.12-10.35 358.81-7.63 359.51-4.9 360.94-3.48 362.37-2.05 364.06-1.53 365.76-1 368.26-1L368.26-1Q373.97-1 376.17-3.95L376.17-3.95ZM392.91-29.6L392.91-29.6Q399.11-29.6 401.71-26.85L401.71-26.85 400.71-25.75Q398.31-28.1 393.11-28.1L393.11-28.1Q385.31-28.1 385.31-21.9L385.31-21.9Q385.31-19.5 387.21-18.07 389.11-16.65 391.84-15.9 394.56-15.15 397.29-14.33 400.01-13.5 401.91-11.68 403.81-9.85 403.81-6.9L403.81-6.9Q403.81-3.45 400.96-1.4 398.11 0.65 392.71 0.65L392.71 0.65Q390.06 0.65 387.49-0.05 384.91-0.75 383.66-2.1L383.66-2.1 384.66-3.2Q387.21-0.85 392.51-0.85L392.51-0.85Q397.36-0.85 399.84-2.65 402.31-4.45 402.31-6.85L402.31-6.85Q402.31-9.35 400.41-10.9 398.51-12.45 395.79-13.23 393.06-14 390.34-14.83 387.61-15.65 385.71-17.4 383.81-19.15 383.81-22L383.81-22Q383.81-25.85 386.39-27.73 388.96-29.6 392.91-29.6ZM418.76-29.6L418.76-29.6Q424.96-29.6 427.56-26.85L427.56-26.85 426.56-25.75Q424.16-28.1 418.96-28.1L418.96-28.1Q411.16-28.1 411.16-21.9L411.16-21.9Q411.16-19.5 413.06-18.07 414.96-16.65 417.69-15.9 420.41-15.15 423.13-14.33 425.86-13.5 427.76-11.68 429.66-9.85 429.66-6.9L429.66-6.9Q429.66-3.45 426.81-1.4 423.96 0.65 418.56 0.65L418.56 0.65Q415.91 0.65 413.34-0.05 410.76-0.75 409.51-2.1L409.51-2.1 410.51-3.2Q413.06-0.85 418.36-0.85L418.36-0.85Q423.21-0.85 425.69-2.65 428.16-4.45 428.16-6.85L428.16-6.85Q428.16-9.35 426.26-10.9 424.36-12.45 421.63-13.23 418.91-14 416.19-14.83 413.46-15.65 411.56-17.4 409.66-19.15 409.66-22L409.66-22Q409.66-25.85 412.24-27.73 414.81-29.6 418.76-29.6Z" opacity="1" transform="matrix(1,0,0,1,0,0)" fill="#ffffff" class="wordmark-text-0" data-fill-palette-color="primary" id="text-0"></path></svg></g></svg></g><g transform="matrix(1,0,0,1,152.90596166674317,51.816029508874905)"><svg viewBox="0 0 89.70807666651362 25.906421802935007" height="25.906421802935007" width="89.70807666651362"><g transform="matrix(1,0,0,1,0,0)"><svg width="89.70807666651362" viewBox="-0.10000000149011612 -33.45000076293945 115.81999969482422 33.45000076293945" height="25.906421802935007" data-palette-color="#ffffff"><path d="M10.69-33.45L18.21-33.45Q20.68-33.45 22.68-32.71 24.68-31.98 26.09-30.71 27.49-29.44 28.25-27.75 29-26.05 29-24.15L29-24.15 29-9.3Q29-7.4 28.25-5.7 27.49-4 26.09-2.73 24.68-1.46 22.68-0.73 20.68 0 18.21 0L18.21 0 10.69 0Q8.23 0 6.23-0.73 4.22-1.46 2.82-2.73 1.42-4 0.66-5.7-0.1-7.4-0.1-9.3L-0.1-9.3-0.1-24.15Q-0.1-26.05 0.66-27.75 1.42-29.44 2.82-30.71 4.22-31.98 6.23-32.71 8.23-33.45 10.69-33.45L10.69-33.45ZM22.71-22.19L22.71-27.29 22.36-29.35 20.8-30.91 18.31-31.25 9.2-31.25 9.2-11.06 11.74-11.06 11.74-18.26 18.31-18.26 20.8-18.55 22.36-20.09 22.71-22.19ZM20.09-22.46L19.75-21.09 18.16-20.85 11.74-20.85 11.74-28.66 18.16-28.66 19.85-28.39 20.09-26.95 20.09-22.46ZM49.95-11.06L49.95-13.65 42.45-13.65 42.45-31.25 39.87-31.25 39.87-11.06 49.95-11.06ZM39.6-33.45L47.12-33.45Q49.58-33.45 51.58-32.71 53.59-31.98 54.99-30.71 56.39-29.44 57.15-27.75 57.91-26.05 57.91-24.15L57.91-24.15 57.91-9.3Q57.91-7.4 57.15-5.7 56.39-4 54.99-2.73 53.59-1.46 51.58-0.73 49.58 0 47.12 0L47.12 0 39.6 0Q37.13 0 35.13-0.73 33.13-1.46 31.72-2.73 30.32-4 29.56-5.7 28.81-7.4 28.81-9.3L28.81-9.3 28.81-24.15Q28.81-26.05 29.56-27.75 30.32-29.44 31.72-30.71 33.13-31.98 35.13-32.71 37.13-33.45 39.6-33.45L39.6-33.45ZM76.61-11.35L79.02-11.08 79.02-16.65 79.02-27.34 79.02-29.39 77.36-30.96 74.92-31.25 69.36-31.25 66.5-30.91 67.11-28.25 69.4-28.71 74.85-28.71 76.31-28.39 76.66-27.1 76.66-21.41 74.92-21.7 69.36-21.7 66.91-21.34 65.35-19.8 65.01-17.8 65.01-14.94 65.35-12.89 66.91-11.35 69.36-11.06 74.7-11.06 76.61-11.35ZM76.66-15.21L76.66-13.89 74.75-13.65 69.5-13.65 67.96-13.89 67.62-15.36 67.62-17.46 67.82-18.85 69.5-19.09 74.8-19.09 76.66-18.9 76.66-15.21ZM68.5-33.45L76.02-33.45Q78.49-33.45 80.49-32.71 82.49-31.98 83.89-30.71 85.3-29.44 86.05-27.75 86.81-26.05 86.81-24.15L86.81-24.15 86.81-9.3Q86.81-7.4 86.05-5.7 85.3-4 83.89-2.73 82.49-1.46 80.49-0.73 78.49 0 76.02 0L76.02 0 68.5 0Q66.04 0 64.03-0.73 62.03-1.46 60.63-2.73 59.22-4 58.47-5.7 57.71-7.4 57.71-9.3L57.71-9.3 57.71-24.15Q57.71-26.05 58.47-27.75 59.22-29.44 60.63-30.71 62.03-31.98 64.03-32.71 66.04-33.45 68.5-33.45L68.5-33.45ZM102.26-20.29L97.92-31.25 94.87-31.25 100.97-16.75 100.97-11.06 103.56-11.06 103.56-16.7 109.76-31.25 106.71-31.25 102.26-20.29ZM97.4-33.45L104.92-33.45Q107.39-33.45 109.39-32.71 111.39-31.98 112.8-30.71 114.2-29.44 114.96-27.75 115.72-26.05 115.72-24.15L115.72-24.15 115.72-9.3Q115.72-7.4 114.96-5.7 114.2-4 112.8-2.73 111.39-1.46 109.39-0.73 107.39 0 104.92 0L104.92 0 97.4 0Q94.94 0 92.94-0.73 90.93-1.46 89.53-2.73 88.13-4 87.37-5.7 86.61-7.4 86.61-9.3L86.61-9.3 86.61-24.15Q86.61-26.05 87.37-27.75 88.13-29.44 89.53-30.71 90.93-31.98 92.94-32.71 94.94-33.45 97.4-33.45L97.4-33.45Z" opacity="1" transform="matrix(1,0,0,1,0,0)" fill="#ffffff" class="slogan-text-1" data-fill-palette-color="secondary" id="text-1"></path></svg></g></svg></g></svg></g></svg></g><g transform="matrix(1,0,0,1,110.65058744014519,0)"><svg viewBox="0 0 176.19642511970955 107.41242771292131" height="107.41242771292131" width="176.19642511970955"><g><svg xmlns="http://www.w3.org/2000/svg" xmlns:xlink="http://www.w3.org/1999/xlink" version="1.1" x="0" y="0" viewBox="0 0 99.99876403808594 60.96099853515625" enable-background="new 0 0 100 100" xml:space="preserve" height="107.41242771292131" width="176.19642511970955" class="icon-icon-0" data-fill-palette-color="accent" id="icon-0"><path fill-rule="evenodd" clip-rule="evenodd" d="M0 39.844c2.843-0.592 5.438-1.747 7.792-3.443 1.539-1.107 2.78-2.488 3.789-4.093 2.609-4.148 5.604-8.009 8.778-11.737 1.859-2.183 3.465-4.557 5.098-6.91 0.92-1.325 1.829-2.661 2.993-3.792 0.936-0.909 1.987-1.62 3.306-1.84 1.209-0.202 2.37 0.03 3.491 0.463 1.107 0.428 2.195 0.906 3.293 1.356 0.949 0.389 1.96 0.506 2.963 0.622 2.916 0.336 5.835 0.64 8.753 0.95 0.158 0.017 0.331-0.009 0.484-0.056C63.008 7.636 75.273 3.903 87.54 0.17c0.195-0.06 0.393-0.114 0.589-0.17 0.331 0 0.662 0 0.993 0 0.355 0.126 0.727 0.221 1.064 0.384 0.892 0.431 1.493 1.138 1.781 2.083 2.626 8.611 5.247 17.223 7.864 25.836 0.596 1.961-0.438 3.842-2.434 4.45-5.303 1.617-10.606 3.231-15.91 4.845-7.229 2.2-14.459 4.399-21.688 6.599-2.021 0.615-3.896-0.389-4.503-2.411-0.032-0.106-0.07-0.211-0.12-0.358-0.347 0.397-0.663 0.771-0.991 1.134-0.977 1.083-2.016 1.3-3.348 0.706-0.885-0.395-1.568-1.024-2.121-1.808-0.064-0.091-0.125-0.184-0.212-0.312-0.334 0.229-0.652 0.437-0.958 0.659-0.586 0.423-1.149 0.881-1.752 1.278-0.937 0.616-1.881 0.5-2.744-0.146-1.359-1.02-1.946-2.445-2.025-4.108-0.01-0.215-0.001-0.431-0.001-0.742-0.201 0.292-0.356 0.514-0.507 0.739-1.046 1.563-2.076 3.138-3.142 4.687-1.19 1.73-2.637 3.204-4.446 4.305-1.128 0.687-2.216 1.441-3.363 2.095-0.967 0.551-2.043 0.826-3.156 0.931-0.12 0.011-0.244 0.048-0.354 0.1-3.823 1.798-7.502 3.842-10.886 6.39-1.357 1.022-2.628 2.141-3.752 3.42-0.054 0.062-0.11 0.121-0.187 0.205-0.689-0.63-1.365-1.247-2.077-1.896 3.34-3.779 7.544-6.362 11.91-8.788-1.932-0.688-3.826-1.362-5.72-2.036 0.005-0.021 0.01-0.042 0.016-0.062 0.839 0.045 1.678 0.085 2.516 0.138 1.413 0.089 2.825 0.192 4.238 0.278 0.948 0.058 1.897 0.144 2.845 0.136 1.99-0.016 3.75-0.726 5.345-1.889 0.71-0.518 1.431-1.021 2.157-1.516 1.264-0.861 2.205-2.027 3.049-3.271 1.212-1.787 2.363-3.616 3.581-5.4 0.57-0.834 1.208-1.626 1.861-2.398 0.811-0.959 1.831-1.612 3.043-1.991 2.237-0.698 4.466-1.422 6.687-2.169 1.853-0.624 3.653-1.384 5.317-2.422 0.866-0.541 1.729-1.113 2.354-1.943 1.666-2.213 0.729-4.899-1.948-5.617-0.851-0.228-1.714-0.223-2.585-0.135-2.397 0.244-4.729 0.762-6.965 1.667-3.007 1.218-5.863 2.713-8.472 4.665-1.642 1.228-3.455 2.154-5.415 2.761-1.104 0.342-2.239 0.58-3.35 0.901-2.614 0.755-4.923 2.07-6.95 3.878-1.258 1.122-2.495 2.266-3.742 3.399-0.106 0.097-0.215 0.19-0.362 0.261 0.054-0.092 0.105-0.186 0.163-0.276 0.938-1.461 1.857-2.934 2.819-4.379 0.865-1.301 2.04-2.294 3.301-3.196 1.858-1.329 3.956-2.082 6.151-2.603 1.13-0.268 2.215-0.657 3.265-1.15 0.205-0.097 0.263-0.201 0.224-0.425-0.159-0.895-0.418-1.756-0.932-2.51-1.297-1.907-1.775-4.02-1.654-6.296 0.019-0.357 0.003-0.716 0.003-1.075 0.028-0.003 0.057-0.006 0.086-0.009 0.133 0.576 0.266 1.151 0.397 1.727 0.394 1.721 1.09 3.282 2.309 4.597 0.402 0.434 0.71 0.957 1.115 1.512 0-1.069 0-2.083 0-3.095 0.048-0.005 0.096-0.011 0.144-0.016 0.298 1.334 0.596 2.668 0.894 4 1.238-0.829 2.502-1.675 3.758-2.516-0.238-0.702-0.499-1.428-0.729-2.164-0.312-0.995-0.251-1.976 0.172-2.932 0.016-0.034 0.04-0.065 0.097-0.156-0.011 0.243-0.003 0.418-0.029 0.587-0.108 0.727 0.054 1.405 0.41 2.029 0.397 0.697 0.834 1.371 1.264 2.069 2.102-1.09 4.172-2.062 6.41-2.722-0.149-0.5-0.292-0.982-0.436-1.463-0.099-0.327-0.195-0.653-0.3-0.977-0.224-0.689-0.214-1.381-0.019-2.112-0.587-0.062-1.15-0.113-1.712-0.184-2.244-0.284-4.493-0.541-6.729-0.875-1.223-0.183-2.32-0.789-3.457-1.253-0.733-0.299-1.483-0.574-2.246-0.785-0.862-0.239-1.691-0.057-2.341 0.558-0.673 0.636-1.337 1.302-1.887 2.043-1.335 1.802-2.552 3.692-3.907 5.478-1.599 2.107-3.266 4.165-4.952 6.204-2.259 2.729-4.33 5.595-6.205 8.594-2.153 3.444-5.184 5.79-8.848 7.399-1.458 0.641-2.959 1.152-4.57 1.44-0.138-0.632-0.27-1.254-0.41-1.874C0.133 40.477 0.062 40.255 0 40.031 0 39.968 0 39.907 0 39.844zM54.99 31.133c1.005 3.299 2.005 6.588 3.009 9.875 0.152 0.499 0.498 0.655 1.047 0.488 12.493-3.804 24.986-7.609 37.479-11.413 0.615-0.188 0.771-0.479 0.582-1.097-2.59-8.502-5.181-17.005-7.771-25.507-0.191-0.626-0.471-0.777-1.085-0.59-10.834 3.299-21.668 6.597-32.502 9.896-1.688 0.514-3.377 1.027-5.065 1.544-0.485 0.149-0.666 0.473-0.525 0.947 0.236 0.792 0.478 1.581 0.731 2.367 0.023 0.072 0.156 0.166 0.227 0.157 0.778-0.099 1.554-0.224 2.332-0.328 1.455-0.194 2.892-0.132 4.275 0.399 2.943 1.129 4.483 3.772 3.902 6.786-0.327 1.694-1.268 3.042-2.655 4.053-0.8 0.583-1.643 1.107-2.484 1.628C56.016 30.631 55.507 30.862 54.99 31.133zM52.352 32.119c-0.243 0.156-0.505 0.233-0.616 0.408-1.203 1.882-1.676 3.963-1.508 6.171 0.075 0.983 0.627 1.752 1.495 2.268 0.268 0.159 0.486 0.173 0.691-0.103 0.576-0.779 1.168-1.547 1.738-2.331 0.063-0.086 0.066-0.255 0.033-0.367-0.3-1.02-0.614-2.035-0.924-3.051C52.967 34.147 52.674 33.181 52.352 32.119zM48.527 33.43c-1.171 0.365-2.283 0.707-3.389 1.063-0.102 0.033-0.195 0.147-0.256 0.246-0.589 0.945-1.019 1.961-1.286 3.04-0.27 1.085-0.097 2.09 0.653 2.961 0.176 0.205 0.327 0.244 0.566 0.066 0.803-0.597 1.606-1.197 2.444-1.74 0.341-0.221 0.48-0.419 0.471-0.841C47.694 36.609 47.979 35.038 48.527 33.43z" fill="#ffffff" data-fill-palette-color="accent"></path><path fill-rule="evenodd" clip-rule="evenodd" d="M54.18 20.656c-0.78 0.464-1.556 0.936-2.344 1.386-0.216 0.123-0.271 0.239-0.223 0.488 0.227 1.156 0.438 2.313 0.959 3.386 0.482 0.992 1.145 1.342 2.217 1.098 0.449-0.103 0.886-0.272 1.314-0.445 0.199-0.081 0.256-0.014 0.31 0.158-0.696 0.502-1.442 0.855-2.305 0.919-0.997 0.074-1.675-0.43-2.16-1.235-0.809-1.339-1.202-2.825-1.485-4.345-0.075-0.401 0.06-0.572 0.455-0.668 1.081-0.263 2.162-0.524 3.243-0.786C54.168 20.627 54.174 20.641 54.18 20.656z" fill="#ffffff" data-fill-palette-color="accent"></path></svg></g></svg></g><g></g></svg></g><defs></defs></svg><rect width="395.52" height="216.3544768526141" fill="none" stroke="none" visibility="hidden"></rect></g></svg></g></g></g></g><rect width="405.51554870605474" height="53.71121597290039" x="118.24218749999997" y="225.84146499633783" rx="2.5" ry="2.5" fill="transparent" class="logo-element-hover-target"></rect><rect width="101.25430297851562" height="37.777587890625" x="270.37284851074213" y="277.399673461914" rx="2.5" ry="2.5" fill="transparent" class="logo-element-hover-target"></rect><rect width="187.31982421875" height="118.87805175781247" x="227.34008789062494" y="86.82275772094722" rx="2.5" ry="2.5" fill="transparent" class="logo-element-hover-target"></rect></svg>