<svg version="1.1" viewBox="0 0 640 400" xmlns="http://www.w3.org/2000/svg" xmlns:xlink="http://www.w3.org/1999/xlink" xmlns:svgjs="http://svgjs.dev/svgjs" matcher="0.17961971500736418"><g viewBox="0 0 640 400" matcher="0.17961971500736418"><g matcher="0.17961971500736418"><g matcher="0.17961971500736418"><g matcher="0.17961971500736418"><svg viewBox="0 0 640 400" data-background-color="#141414" preserveAspectRatio="xMidYMid meet" height="400" width="640" xmlns="http://www.w3.org/2000/svg" xmlns:xlink="http://www.w3.org/1999/xlink"><rect width="640" height="400" x="0" y="0" opacity="1" fill="#141414" data-fill-palette-color="background" id="background"></rect><g id="tight-bounds" transform="matrix(1,0,0,1,148.57422074112307,28.57422074112307)"><svg viewBox="0 0 342.85155851775386 342.85155851775386" height="342.85155851775386" width="342.85155851775386"><g><svg></svg></g><g><svg viewBox="0 0 342.85155851775386 342.85155851775386" height="342.85155851775386" width="342.85155851775386"><g><path d="M0 171.426c0-94.676 76.75-171.426 171.426-171.426 94.676 0 171.426 76.75 171.426 171.426 0 94.676-76.75 171.426-171.426 171.426-94.676 0-171.426-76.75-171.426-171.426zM171.426 340.063c93.136 0 168.637-75.501 168.637-168.637 0-93.136-75.501-168.637-168.637-168.637-93.136 0-168.637 75.501-168.637 168.637 0 93.136 75.501 168.637 168.637 168.637z" data-fill-palette-color="tertiary" fill="#505050" stroke="transparent"></path><ellipse rx="164.56874808852186" ry="164.56874808852186" cx="171.42577925887693" cy="171.42577925887693" fill="#505050" stroke="transparent" stroke-width="0" fill-opacity="1" data-fill-palette-color="tertiary"></ellipse></g><g transform="matrix(1,0,0,1,64.84655864529837,111.91462935352159)"><svg viewBox="0 0 213.1584412271571 119.02229981071068" height="119.02229981071068" width="213.1584412271571"><g><svg viewBox="0 0 214.22423343329288 119.61741130976422" height="119.02229981071068" width="213.1584412271571"><g><rect width="214.22423343329288" height="2.802595144282929" x="0" y="58.407408082740645" fill="#7f8c8d" opacity="1" stroke-width="0" stroke="transparent" fill-opacity="1" class="rect-borderrectangle-0" data-fill-palette-color="primary" rx="1%" id="borderrectangle-0" data-palette-color="#7f8c8d"></rect></g><g transform="matrix(1,0,0,1,0.532896103067884,68.54663973038203)"><svg viewBox="0 0 213.1584412271571 51.070771579382196" height="51.070771579382196" width="213.1584412271571"><g id="textblocktransform"><svg viewBox="0 0 213.1584412271571 51.070771579382196" height="51.070771579382196" width="213.1584412271571" id="textblock"><g><svg viewBox="0 0 213.1584412271571 31.07743482335541" height="31.07743482335541" width="213.1584412271571"><g transform="matrix(1,0,0,1,0,0)"><svg width="213.1584412271571" viewBox="2.490000009536743 -32.63999938964844 225.5399932861328 32.880001068115234" height="31.07743482335541" data-palette-color="#ffffff"><path d="M16.46 0.24Q9.33 0.24 5.91-3.52 2.49-7.28 2.49-15.21L2.49-15.21Q2.49-30.66 16.53-30.66L16.53-30.66Q18.58-30.66 20.51-30.24 22.44-29.81 23.63-29.17 24.83-28.54 24.83-27.95L24.83-27.95Q24.83-27.59 24.57-26.98 24.32-26.37 23.97-25.9 23.63-25.44 23.36-25.44L23.36-25.44Q23.24-25.44 22.68-25.76L22.68-25.76Q21.41-26.44 20.02-26.9 18.63-27.37 16.63-27.37L16.63-27.37Q11.38-27.37 8.9-24.45 6.42-21.53 6.42-15.16L6.42-15.16Q6.42-8.94 8.87-5.99 11.33-3.05 16.46-3.05L16.46-3.05Q18.6-3.05 20.14-3.56 21.68-4.08 23.1-4.83L23.1-4.83Q23.78-5.2 23.93-5.2L23.93-5.2Q24.19-5.2 24.55-4.74 24.9-4.27 25.17-3.7 25.44-3.13 25.44-2.88L25.44-2.88Q25.44-2.27 24.21-1.53 22.97-0.78 20.91-0.27 18.85 0.24 16.46 0.24L16.46 0.24ZM36.42 0.24Q33.1 0.24 31.05-1.39 29-3.03 29-6.25L29-6.25Q29-9.64 31.08-11.36 33.15-13.09 36.14-13.59 39.13-14.09 43.41-14.16L43.41-14.16 43.41-16.21Q43.41-17.85 42.29-18.84 41.18-19.82 38.64-19.82L38.64-19.82Q36.72-19.82 35.26-19.37 33.81-18.92 32.54-18.29L32.54-18.29Q32-18.02 31.88-18.02L31.88-18.02Q31.59-18.02 31.24-18.44 30.88-18.87 30.62-19.41 30.37-19.95 30.37-20.19L30.37-20.19Q30.37-20.75 31.53-21.41 32.69-22.07 34.57-22.51 36.45-22.95 38.5-22.95L38.5-22.95Q42.58-22.95 44.82-21.17 47.07-19.38 47.07-16.16L47.07-16.16 47.07-6.42Q47.07-3.59 47.32-2.33 47.58-1.07 47.58-0.95L47.58-0.95Q47.58-0.42 46.76-0.18 45.94 0.05 45.24 0.05L45.24 0.05Q44.65 0.05 44.37-0.61 44.09-1.27 43.82-2.51L43.82-2.51 43.72-3Q42.38-1.51 40.56-0.63 38.74 0.24 36.42 0.24L36.42 0.24ZM36.62-2.91Q38.77-2.91 40.28-3.69 41.79-4.47 43.41-5.91L43.41-5.91 43.41-11.04Q40.18-11.01 38.11-10.77 36.03-10.52 34.47-9.53 32.91-8.54 32.91-6.47L32.91-6.47Q32.91-4.74 33.85-3.82 34.79-2.91 36.62-2.91L36.62-2.91ZM56.2 0.07Q55.27 0.07 54.85-0.16 54.44-0.39 54.44-0.88L54.44-0.88 54.44-16.11Q54.44-18.95 54.17-20.2 53.9-21.46 53.9-21.58L53.9-21.58Q53.9-22.12 54.72-22.35 55.54-22.58 56.27-22.58L56.27-22.58Q56.86-22.58 57.15-21.96 57.44-21.34 57.66-20.21L57.66-20.21 57.78-19.7Q60.1-22.95 62.81-22.95L62.81-22.95Q64.06-22.95 64.69-22.5 65.33-22.05 65.33-21.29L65.33-21.29Q65.33-20.56 65.07-19.74 64.81-18.92 64.47-18.92L64.47-18.92Q64.3-18.92 63.86-19.07L63.86-19.07Q63.47-19.24 63.08-19.32 62.69-19.41 62.08-19.41L62.08-19.41Q61.08-19.41 60.19-18.82 59.3-18.24 58.69-17.53 58.08-16.82 58.08-16.75L58.08-16.75 58.08-0.88Q58.08-0.39 57.66-0.16 57.25 0.07 56.37 0.07L56.37 0.07 56.2 0.07ZM77.07 0.24Q74.53 0.24 72.62-1.23 70.72-2.71 69.68-5.35 68.64-7.98 68.64-11.33L68.64-11.33Q68.64-15.01 69.76-17.64 70.87-20.26 72.87-21.61 74.87-22.95 77.48-22.95L77.48-22.95Q79.36-22.95 80.82-22.39 82.27-21.83 83.68-20.75L83.68-20.75 83.68-31.69Q83.68-32.64 85.39-32.64L85.39-32.64 85.59-32.64Q87.32-32.64 87.32-31.69L87.32-31.69 87.32-6.42Q87.32-3.59 87.59-2.33 87.86-1.07 87.86-0.95L87.86-0.95Q87.86-0.42 87.04-0.18 86.22 0.05 85.51 0.05L85.51 0.05Q85.03 0.05 84.73-0.42 84.44-0.88 84.33-1.35 84.22-1.83 83.98-3L83.98-3Q80.88 0.24 77.07 0.24L77.07 0.24ZM77.82-2.91Q79.26-2.91 80.82-3.69 82.37-4.47 83.68-5.91L83.68-5.91 83.68-17.8Q81.34-19.75 78.34-19.75L78.34-19.75Q75.43-19.68 73.95-17.63 72.48-15.58 72.48-11.67L72.48-11.67Q72.48-7.47 73.86-5.19 75.24-2.91 77.82-2.91L77.82-2.91ZM117.2 0.24Q110.68 0.24 107.26-3.71 103.84-7.67 103.84-15.28L103.84-15.28Q103.84-22.88 107.25-26.77 110.66-30.66 117.2-30.66L117.2-30.66Q123.77-30.66 127.18-26.77 130.6-22.88 130.6-15.28L130.6-15.28Q130.6-7.67 127.18-3.71 123.77 0.24 117.2 0.24L117.2 0.24ZM117.2-3.05Q121.79-3.05 124.23-6.19 126.67-9.33 126.67-15.28L126.67-15.28Q126.67-21.24 124.24-24.3 121.81-27.37 117.2-27.37L117.2-27.37Q112.61-27.37 110.19-24.3 107.78-21.24 107.78-15.28L107.78-15.28Q107.78-9.3 110.19-6.18 112.61-3.05 117.2-3.05L117.2-3.05ZM138.75 0.07Q137.83 0.07 137.41-0.16 137-0.39 137-0.88L137-0.88 137-16.11Q137-18.95 136.73-20.2 136.46-21.46 136.46-21.58L136.46-21.58Q136.46-22.12 137.28-22.35 138.1-22.58 138.83-22.58L138.83-22.58Q139.41-22.58 139.71-21.96 140-21.34 140.22-20.21L140.22-20.21 140.34-19.7Q142.66-22.95 145.37-22.95L145.37-22.95Q146.62-22.95 147.25-22.5 147.89-22.05 147.89-21.29L147.89-21.29Q147.89-20.56 147.63-19.74 147.37-18.92 147.03-18.92L147.03-18.92Q146.86-18.92 146.42-19.07L146.42-19.07Q146.03-19.24 145.64-19.32 145.25-19.41 144.64-19.41L144.64-19.41Q143.64-19.41 142.75-18.82 141.86-18.24 141.24-17.53 140.63-16.82 140.63-16.75L140.63-16.75 140.63-0.88Q140.63-0.39 140.22-0.16 139.8 0.07 138.93 0.07L138.93 0.07 138.75 0.07ZM158.5 0.24Q155.18 0.24 153.13-1.39 151.08-3.03 151.08-6.25L151.08-6.25Q151.08-9.64 153.16-11.36 155.23-13.09 158.22-13.59 161.21-14.09 165.49-14.16L165.49-14.16 165.49-16.21Q165.49-17.85 164.37-18.84 163.26-19.82 160.72-19.82L160.72-19.82Q158.8-19.82 157.34-19.37 155.89-18.92 154.62-18.29L154.62-18.29Q154.08-18.02 153.96-18.02L153.96-18.02Q153.67-18.02 153.32-18.44 152.96-18.87 152.7-19.41 152.45-19.95 152.45-20.19L152.45-20.19Q152.45-20.75 153.61-21.41 154.77-22.07 156.65-22.51 158.53-22.95 160.58-22.95L160.58-22.95Q164.66-22.95 166.9-21.17 169.15-19.38 169.15-16.16L169.15-16.16 169.15-6.42Q169.15-3.59 169.4-2.33 169.66-1.07 169.66-0.95L169.66-0.95Q169.66-0.42 168.84-0.18 168.02 0.05 167.32 0.05L167.32 0.05Q166.73 0.05 166.45-0.61 166.17-1.27 165.9-2.51L165.9-2.51 165.8-3Q164.46-1.51 162.64-0.63 160.82 0.24 158.5 0.24L158.5 0.24ZM158.7-2.91Q160.85-2.91 162.36-3.69 163.87-4.47 165.49-5.91L165.49-5.91 165.49-11.04Q162.26-11.01 160.19-10.77 158.11-10.52 156.55-9.53 154.99-8.54 154.99-6.47L154.99-6.47Q154.99-4.74 155.93-3.82 156.87-2.91 158.7-2.91L158.7-2.91ZM185.55 0.24Q180.16 0.24 177.51-2.53 174.86-5.3 174.86-11.45L174.86-11.45Q174.86-17.68 177.81-20.31 180.77-22.95 185.16-22.95L185.16-22.95Q186.8-22.95 188.31-22.67 189.82-22.39 190.75-21.92 191.68-21.46 191.68-20.95L191.68-20.95Q191.68-20.61 191.45-20.04 191.22-19.48 190.89-19.06 190.56-18.63 190.29-18.63L190.29-18.63Q190.21-18.63 190.07-18.69 189.92-18.75 189.8-18.8L189.8-18.8Q187.6-19.82 185.06-19.82L185.06-19.82Q182.06-19.82 180.42-17.86 178.79-15.89 178.79-11.55L178.79-11.55Q178.79-8.47 179.45-6.58 180.11-4.69 181.58-3.78 183.06-2.88 185.53-2.88L185.53-2.88Q188.24-2.88 190.41-4L190.41-4Q190.63-4.05 190.74-4.11 190.85-4.17 190.9-4.17L190.9-4.17Q191.17-4.17 191.51-3.76 191.85-3.34 192.11-2.81 192.36-2.27 192.36-1.95L192.36-1.95Q192.36-1.44 191.44-0.93 190.51-0.42 188.93-0.09 187.36 0.24 185.55 0.24L185.55 0.24ZM202.81 0.24Q200.64 0.24 198.93-1.07 197.22-2.39 197.22-5.74L197.22-5.74 197.22-31.69Q197.22-32.64 198.95-32.64L198.95-32.64 199.15-32.64Q200.86-32.64 200.86-31.69L200.86-31.69 200.86-6.08Q200.86-4.3 201.49-3.59 202.13-2.88 203.2-2.88L203.2-2.88Q204.01-2.88 204.47-2.98 204.93-3.08 205.08-3.08L205.08-3.08Q205.47-3.08 205.73-2.29 205.98-1.51 205.98-1.05L205.98-1.05Q205.98 0.24 202.81 0.24L202.81 0.24ZM219.6 0.24Q214.21 0.24 211.58-2.58 208.96-5.4 208.96-11.21L208.96-11.21Q208.96-16.97 211.52-19.96 214.09-22.95 219.07-22.95L219.07-22.95Q223.51-22.95 225.77-20.07 228.03-17.19 228.03-11.62L228.03-11.62Q228.03-11.38 227.77-10.95 227.51-10.52 227.16-10.19 226.81-9.86 226.56-9.86L226.56-9.86 212.87-9.86Q213.13-6.23 214.73-4.55 216.33-2.88 219.56-2.88L219.56-2.88Q221.36-2.88 222.67-3.32 223.97-3.76 225.19-4.39L225.19-4.39Q225.32-4.44 225.56-4.57 225.81-4.69 225.9-4.69L225.9-4.69Q226.17-4.69 226.53-4.26 226.88-3.83 227.14-3.31 227.39-2.78 227.39-2.54L227.39-2.54Q227.39-2 226.32-1.34 225.24-0.68 223.45-0.22 221.65 0.24 219.6 0.24L219.6 0.24ZM212.87-12.99L224.14-12.99Q224.14-19.82 218.94-19.82L218.94-19.82Q213.35-19.82 212.87-12.99L212.87-12.99Z" opacity="1" transform="matrix(1,0,0,1,0,0)" fill="#ffffff" class="wordmark-text-0" data-fill-palette-color="quaternary" id="text-0"></path></svg></g></svg></g><g transform="matrix(1,0,0,1,0,38.41407132671387)"><svg viewBox="0 0 213.1584412271571 12.65670025266833" height="12.65670025266833" width="213.1584412271571"><g transform="matrix(1,0,0,1,0,0)"><svg width="213.1584412271571" viewBox="3.5 -43.650001525878906 956.52001953125 56.80000305175781" height="12.65670025266833" data-palette-color="#ffffff"><path d="M38.5-15L38.5-7.9 39.85-5.75 30.65-0.1Q28.55 0.55 26.58 0.78 24.6 1 22.35 1L22.35 1Q16.8 1 12.53-1.55 8.25-4.1 5.88-8.58 3.5-13.05 3.5-18.75L3.5-18.75Q3.5-24.6 7.05-29.58 10.6-34.55 15.9-37.43 21.2-40.3 26-40.3L26-40.3Q28.85-40.3 32.65-39.55 36.45-38.8 38.2-37.95L38.2-37.95 38.2-28.25 36.3-28.25Q31.3-36.1 23.1-36.1L23.1-36.1Q19.5-36.1 16.55-34.18 13.6-32.25 11.93-28.83 10.25-25.4 10.25-21.15L10.25-21.15Q10.25-16.25 11.88-12.2 13.5-8.15 16.85-5.7 20.2-3.25 25.15-3.25L25.15-3.25Q27.35-3.25 28.8-3.4 30.25-3.55 32.25-4.35L32.25-4.35 32.25-16.15 24.55-18.3 25.55-20.3 43.25-20.3 43.25-18.75 38.5-15ZM75.3-2L74.3 0 64.8 0 64.8-4.35 59.15 0.1Q58.15 0.5 56.65 0.5L56.65 0.5Q52.35 0.5 50.42-1.65 48.5-3.8 48.5-6.8L48.5-6.8Q48.5-8.6 49.8-10.35 51.1-12.1 53.5-13.65L53.5-13.65 64.8-13.65 64.8-16.85Q64.8-20.1 63.07-21.45 61.35-22.8 58.35-22.8L58.35-22.8Q55.25-22.8 50.75-19.05L50.75-19.05 49.25-20.95 56.45-26.65Q58.45-27.05 61.25-27.05L61.25-27.05Q65.8-27.05 68.3-24.83 70.8-22.6 70.8-18.35L70.8-18.35 70.8-3.75 75.3-2ZM58.25-3.75Q61.3-3.75 64.8-6.55L64.8-6.55 64.8-11.6 55.95-11.6Q55.3-10.8 55.02-10 54.75-9.2 54.75-8.25L54.75-8.25Q54.75-6.4 55.7-5.08 56.65-3.75 58.25-3.75L58.25-3.75ZM127.3-2L126.3 0 116.8 0 116.8-16.85Q116.8-19.6 115.95-20.7 115.09-21.8 112.9-21.8L112.9-21.8Q111.34-21.8 109.84-21.23 108.34-20.65 106.3-18.95L106.3-18.95 106.3-3.75 110.8-2 109.8 0 100.3 0 100.3-16.85Q100.3-19.6 99.45-20.7 98.59-21.8 96.4-21.8L96.4-21.8Q94.84-21.8 93.34-21.23 91.84-20.65 89.8-18.95L89.8-18.95 89.8-3.75 94.3-2 93.3 0 79.34 0 79.34-1.55 83.8-5.05 83.8-19.2 79.34-21.8 79.34-23.35 87.9-27.55 89.5-21.15 96.15-26.7Q97.2-27.1 98.9-27.1L98.9-27.1Q101.8-27.1 103.7-25.53 105.59-23.95 106.09-21.2L106.09-21.2 112.59-26.65Q113.65-27.05 115.34-27.05L115.34-27.05Q118.75-27.05 120.75-24.98 122.75-22.9 122.75-19.35L122.75-19.35 122.75-3.75 127.3-2ZM157.14-6.9L148.29 0.1Q146.29 0.5 143.49 0.5L143.49 0.5Q140.19 0.5 137.57-1.23 134.94-2.95 133.47-5.9 131.99-8.85 131.99-12.4L131.99-12.4Q131.99-16.25 134.34-19.63 136.69-23 140.22-25.03 143.74-27.05 147.04-27.05L147.04-27.05Q151.79-27.05 154.42-23.3 157.04-19.55 157.04-13.4L157.04-13.4 138.54-13.4Q138.84-9.15 140.87-6.45 142.89-3.75 146.39-3.75L146.39-3.75Q149.64-3.75 155.64-8.8L155.64-8.8 157.14-6.9ZM144.14-22.85Q138.74-22.85 138.49-15.45L138.49-15.45 150.19-15.45Q149.74-18.15 149.27-19.58 148.79-21 147.62-21.93 146.44-22.85 144.14-22.85L144.14-22.85ZM212.69-40.2L212.69-27.7 211.19-27.2 204.54-37.05 198.44-37.05 198.44-3.8 203.69-2 202.69 0 187.49 0 187.49-1.55 192.19-5.25 192.19-37.05 186.24-37.05 179.59-27.2 178.09-27.7 178.09-40.2 180.79-39.3 209.99-39.3 212.69-40.2ZM233.88-2L232.88 0 218.94 0 218.94-1.55 223.38-5.05 223.38-19.65 218.94-22.75 218.94-24.3 227.49-27.5 229.38-27.5 229.38-3.75 233.88-2ZM226.19-42.5Q227.69-42.5 228.66-41.4 229.63-40.3 229.63-38.65L229.63-38.65Q229.63-37.5 228.94-36.48 228.24-35.45 227.19-34.85 226.13-34.25 225.13-34.25L225.13-34.25Q223.63-34.25 222.66-35.35 221.69-36.45 221.69-38.1L221.69-38.1Q221.69-39.25 222.38-40.28 223.09-41.3 224.13-41.9 225.19-42.5 226.19-42.5L226.19-42.5ZM286.38-2L285.38 0 275.88 0 275.88-16.85Q275.88-19.6 275.03-20.7 274.18-21.8 271.98-21.8L271.98-21.8Q270.43-21.8 268.93-21.23 267.43-20.65 265.38-18.95L265.38-18.95 265.38-3.75 269.88-2 268.88 0 259.38 0 259.38-16.85Q259.38-19.6 258.53-20.7 257.68-21.8 255.48-21.8L255.48-21.8Q253.93-21.8 252.43-21.23 250.93-20.65 248.88-18.95L248.88-18.95 248.88-3.75 253.38-2 252.38 0 238.43 0 238.43-1.55 242.88-5.05 242.88-19.2 238.43-21.8 238.43-23.35 246.98-27.55 248.58-21.15 255.23-26.7Q256.28-27.1 257.98-27.1L257.98-27.1Q260.88-27.1 262.78-25.53 264.68-23.95 265.18-21.2L265.18-21.2 271.68-26.65Q272.73-27.05 274.43-27.05L274.43-27.05Q277.83-27.05 279.83-24.98 281.83-22.9 281.83-19.35L281.83-19.35 281.83-3.75 286.38-2ZM316.23-6.9L307.38 0.1Q305.38 0.5 302.58 0.5L302.58 0.5Q299.28 0.5 296.65-1.23 294.03-2.95 292.56-5.9 291.08-8.85 291.08-12.4L291.08-12.4Q291.08-16.25 293.43-19.63 295.78-23 299.31-25.03 302.83-27.05 306.13-27.05L306.13-27.05Q310.88-27.05 313.5-23.3 316.13-19.55 316.13-13.4L316.13-13.4 297.63-13.4Q297.93-9.15 299.95-6.45 301.98-3.75 305.48-3.75L305.48-3.75Q308.73-3.75 314.73-8.8L314.73-8.8 316.23-6.9ZM303.23-22.85Q297.83-22.85 297.58-15.45L297.58-15.45 309.28-15.45Q308.83-18.15 308.35-19.58 307.88-21 306.7-21.93 305.53-22.85 303.23-22.85L303.23-22.85ZM376.82-26.55L376.82-25 365.67 0 361.87 0 356.67-12.75 350.22 0 346.42 0 338.62-19.05 333.97-21.75 333.97-23.3 342.52-27.5 344.42-19.95 350.52-5.1 355.42-15.65 354.02-19.05 349.37-21.75 349.37-23.3 357.92-27.5 359.82-19.95 365.77-5.5 371.77-19.5 364.82-24.55 365.82-26.55 376.82-26.55ZM394.32-2L393.32 0 379.37 0 379.37-1.55 383.82-5.05 383.82-19.65 379.37-22.75 379.37-24.3 387.92-27.5 389.82-27.5 389.82-3.75 394.32-2ZM386.62-42.5Q388.12-42.5 389.1-41.4 390.07-40.3 390.07-38.65L390.07-38.65Q390.07-37.5 389.37-36.48 388.67-35.45 387.62-34.85 386.57-34.25 385.57-34.25L385.57-34.25Q384.07-34.25 383.1-35.35 382.12-36.45 382.12-38.1L382.12-38.1Q382.12-39.25 382.82-40.28 383.52-41.3 384.57-41.9 385.62-42.5 386.62-42.5L386.62-42.5ZM418.12-3.9L413.07 0.1Q411.92 0.5 410.27 0.5L410.27 0.5Q406.12 0.5 404.19-1.68 402.27-3.85 402.27-8.4L402.27-8.4 402.27-23 396.87-23 396.87-25.05 406.37-36.1 408.27-36.1 408.27-25.05 417.27-25.05 417.27-23 408.27-23 408.27-7.8Q408.27-3.75 412.17-3.75L412.17-3.75Q413.22-3.75 414.19-4.2 415.17-4.65 416.62-5.8L416.62-5.8 418.12-3.9ZM452.57-2L451.57 0 442.07 0 442.07-16.85Q442.07-19.6 441.22-20.7 440.37-21.8 438.17-21.8L438.17-21.8Q436.52-21.8 434.89-21.2 433.27-20.6 431.07-18.9L431.07-18.9 431.07-3.75 435.57-2 434.57 0 420.62 0 420.62-1.55 425.07-5.05 425.07-35.8 420.62-38.9 420.62-40.45 429.17-43.65 431.07-43.65 431.07-21.25 437.92-26.65Q438.97-27.05 440.67-27.05L440.67-27.05Q444.07-27.05 446.07-24.98 448.07-22.9 448.07-19.35L448.07-19.35 448.07-3.75 452.57-2ZM481.71-3.8L486.96-2 485.96 0 470.76 0 470.76-1.55 475.46-5.25 475.46-35.55 470.26-37.3 471.26-39.3 486.46-39.3 486.46-37.75 481.71-34.05 481.71-3.8ZM510.11-2L509.11 0 500.06 0 484.56-19.7 499.91-33.1 494.11-37.3 495.11-39.3 508.56-39.3 508.56-37.75 490.56-22.05 504.31-4.85 510.11-2ZM545.46-1.95L544.46 0.05 534.96 0.05 534.96-16.8Q534.96-19.55 534.11-20.65 533.26-21.75 531.06-21.75L531.06-21.75Q529.41-21.75 527.78-21.15 526.16-20.55 523.96-18.85L523.96-18.85 523.96-3.7 528.46-1.95 527.46 0.05 513.51 0.05 513.51-1.5 517.96-5 517.96-19.15 513.51-21.75 513.51-23.3 522.06-27.5 523.71-21 530.81-26.65Q531.86-27.05 533.56-27.05L533.56-27.05Q536.96-27.05 538.96-24.98 540.96-22.9 540.96-19.35L540.96-19.35 540.96-3.75 545.46-1.95ZM565.26-27.05Q568.56-27.05 571.18-25.33 573.81-23.6 575.28-20.65 576.76-17.7 576.76-14.15L576.76-14.15Q576.76-10.3 574.41-6.93 572.06-3.55 568.53-1.53 565.01 0.5 561.71 0.5L561.71 0.5Q558.41 0.5 555.78-1.23 553.16-2.95 551.68-5.9 550.21-8.85 550.21-12.4L550.21-12.4Q550.21-16.25 552.56-19.63 554.91-23 558.43-25.03 561.96-27.05 565.26-27.05L565.26-27.05ZM562.36-22.85Q556.71-22.85 556.71-14.8L556.71-14.8Q556.71-10.05 558.76-6.88 560.81-3.7 564.61-3.7L564.61-3.7Q570.26-3.7 570.26-11.8L570.26-11.8Q570.26-16.5 568.21-19.68 566.16-22.85 562.36-22.85L562.36-22.85ZM623.4-26.55L623.4-25 612.25 0 608.45 0 603.25-12.75 596.8 0 593 0 585.2-19.05 580.55-21.75 580.55-23.3 589.1-27.5 591-19.95 597.1-5.1 602-15.65 600.6-19.05 595.95-21.75 595.95-23.3 604.5-27.5 606.4-19.95 612.35-5.5 618.35-19.5 611.4-24.55 612.4-26.55 623.4-26.55ZM639.9-2L638.9 0 624.95 0 624.95-1.55 629.4-5.05 629.4-35.8 624.95-38.9 624.95-40.45 633.5-43.65 635.4-43.65 635.4-3.75 639.9-2ZM670.3-6.9L661.45 0.1Q659.45 0.5 656.65 0.5L656.65 0.5Q653.35 0.5 650.72-1.23 648.1-2.95 646.62-5.9 645.15-8.85 645.15-12.4L645.15-12.4Q645.15-16.25 647.5-19.63 649.85-23 653.37-25.03 656.9-27.05 660.2-27.05L660.2-27.05Q664.95-27.05 667.57-23.3 670.2-19.55 670.2-13.4L670.2-13.4 651.7-13.4Q652-9.15 654.02-6.45 656.05-3.75 659.55-3.75L659.55-3.75Q662.8-3.75 668.8-8.8L668.8-8.8 670.3-6.9ZM657.3-22.85Q651.9-22.85 651.65-15.45L651.65-15.45 663.35-15.45Q662.9-18.15 662.42-19.58 661.95-21 660.77-21.93 659.6-22.85 657.3-22.85L657.3-22.85ZM707.75-2L706.75 0 697.25 0 697.25-3.6 692.6 0.1Q691 0.5 688.75 0.5L688.75 0.5Q685.45 0.5 682.82-1.23 680.2-2.95 678.72-5.9 677.25-8.85 677.25-12.4L677.25-12.4Q677.25-16.25 679.6-19.63 681.95-23 685.47-25.03 689-27.05 692.3-27.05L692.3-27.05Q695.05-27.05 697.3-25.5L697.3-25.5 697.3-35.8 692.85-38.9 692.85-40.45 701.4-43.65 703.3-43.65 703.3-3.75 707.75-2ZM691.3-3.75Q692.8-3.75 694.17-4.17 695.55-4.6 697.25-5.8L697.25-5.8 697.25-17.2Q696.95-19.7 694.92-21.28 692.9-22.85 689.4-22.85L689.4-22.85Q683.75-22.85 683.75-14.8L683.75-14.8Q683.75-10.1 685.7-6.93 687.65-3.75 691.3-3.75L691.3-3.75ZM739.59-23.1L733.69-23.1Q735.09-21.1 735.09-18.6L735.09-18.6Q735.09-16.4 733.84-14.28 732.59-12.15 730.49-10.55 728.39-8.95 725.89-8.15L725.89-8.15Q724.54-6.8 724.54-5.3L724.54-5.3Q724.54-4.45 725.87-3.73 727.19-3 729.79-2L729.79-2Q733.34-0.6 735.27 0.58 737.19 1.75 737.19 3.45L737.19 3.45Q737.19 4.95 735.27 7.3 733.34 9.65 730.49 11.4 727.64 13.15 724.99 13.15L724.99 13.15Q722.19 13.15 718.37 12.2 714.54 11.25 711.99 10.3L711.99 10.3 711.99 2.6 713.89 2.6Q716.69 6.05 719.59 7.85 722.49 9.65 726.14 9.65L726.14 9.65Q727.49 9.65 728.62 9.1 729.74 8.55 730.37 7.73 730.99 6.9 730.99 6.15L730.99 6.15Q730.99 4.8 729.44 3.83 727.89 2.85 724.59 1.45L724.59 1.45Q721.44 0.15 719.92-0.8 718.39-1.75 718.39-3L718.39-3Q718.39-4.2 719.99-5.45 721.59-6.7 723.79-7.65L723.79-7.65Q722.99-7.5 722.14-7.5L722.14-7.5Q719.49-7.5 717.29-8.68 715.09-9.85 713.82-11.8 712.54-13.75 712.54-16.05L712.54-16.05Q712.54-18.8 714.44-21.35 716.34-23.9 719.37-25.48 722.39-27.05 725.54-27.05L725.54-27.05Q729.04-27.05 731.69-25.05L731.69-25.05 739.54-25.05 739.59-23.1ZM725.04-11.8Q727.29-11.8 728.47-12.93 729.64-14.05 729.64-16.25L729.64-16.25Q729.64-19.25 727.72-21.1 725.79-22.95 722.64-22.95L722.64-22.95Q720.44-22.95 719.27-21.88 718.09-20.8 718.09-18.6L718.09-18.6Q718.09-15.55 720.02-13.68 721.94-11.8 725.04-11.8L725.04-11.8ZM768.69-6.9L759.84 0.1Q757.84 0.5 755.04 0.5L755.04 0.5Q751.74 0.5 749.12-1.23 746.49-2.95 745.02-5.9 743.54-8.85 743.54-12.4L743.54-12.4Q743.54-16.25 745.89-19.63 748.24-23 751.77-25.03 755.29-27.05 758.59-27.05L758.59-27.05Q763.34-27.05 765.97-23.3 768.59-19.55 768.59-13.4L768.59-13.4 750.09-13.4Q750.39-9.15 752.42-6.45 754.44-3.75 757.94-3.75L757.94-3.75Q761.19-3.75 767.19-8.8L767.19-8.8 768.69-6.9ZM755.69-22.85Q750.29-22.85 750.04-15.45L750.04-15.45 761.74-15.45Q761.29-18.15 760.82-19.58 760.34-21 759.17-21.93 757.99-22.85 755.69-22.85L755.69-22.85ZM811.14-40.3Q813.79-40.3 817.26-39.55 820.74-38.8 822.34-37.95L822.34-37.95 822.34-28.25 820.44-28.25Q815.84-36.1 808.24-36.1L808.24-36.1Q804.94-36.1 802.21-34.18 799.49-32.25 797.94-28.83 796.39-25.4 796.39-21.15L796.39-21.15Q796.39-16.25 797.91-12.2 799.44-8.15 802.56-5.7 805.69-3.25 810.29-3.25L810.29-3.25Q814.54-3.25 822.49-9.65L822.49-9.65 823.99-7.25 814.79-0.1Q812.94 0.55 811.21 0.78 809.49 1 807.49 1L807.49 1Q802.24 1 798.19-1.55 794.14-4.1 791.89-8.58 789.64-13.05 789.64-18.75L789.64-18.75Q789.64-24.6 793.04-29.58 796.44-34.55 801.49-37.43 806.54-40.3 811.14-40.3L811.14-40.3ZM856.93-2L855.93 0 846.43 0 846.43-4.35 840.78 0.1Q839.78 0.5 838.28 0.5L838.28 0.5Q833.98 0.5 832.06-1.65 830.13-3.8 830.13-6.8L830.13-6.8Q830.13-8.6 831.43-10.35 832.73-12.1 835.13-13.65L835.13-13.65 846.43-13.65 846.43-16.85Q846.43-20.1 844.71-21.45 842.98-22.8 839.98-22.8L839.98-22.8Q836.88-22.8 832.38-19.05L832.38-19.05 830.88-20.95 838.08-26.65Q840.08-27.05 842.88-27.05L842.88-27.05Q847.43-27.05 849.93-24.83 852.43-22.6 852.43-18.35L852.43-18.35 852.43-3.75 856.93-2ZM839.88-3.75Q842.93-3.75 846.43-6.55L846.43-6.55 846.43-11.6 837.58-11.6Q836.93-10.8 836.66-10 836.38-9.2 836.38-8.25L836.38-8.25Q836.38-6.4 837.33-5.08 838.28-3.75 839.88-3.75L839.88-3.75ZM878.98-27Q880.63-27 881.88-26.1 883.13-25.2 883.83-23.6L883.83-23.6 880.53-19.45 878.63-19.45Q878.43-20.7 877.91-21.23 877.38-21.75 876.48-21.75L876.48-21.75Q875.38-21.75 874.16-21.18 872.93-20.6 871.38-19L871.38-19 871.38-4.1 878.38-1.95 877.38 0.05 860.93 0.05 860.93-1.5 865.38-5 865.38-19.15 860.93-21.75 860.93-23.3 869.48-27.5 871.03-21.35 876.23-26.65Q877.28-27.05 878.98-27.05L878.98-27.05 878.98-27ZM918.08-2L917.08 0 907.58 0 907.58-3.6 902.93 0.1Q901.33 0.5 899.08 0.5L899.08 0.5Q895.78 0.5 893.15-1.23 890.53-2.95 889.05-5.9 887.58-8.85 887.58-12.4L887.58-12.4Q887.58-16.25 889.93-19.63 892.28-23 895.8-25.03 899.33-27.05 902.63-27.05L902.63-27.05Q905.38-27.05 907.63-25.5L907.63-25.5 907.63-35.8 903.18-38.9 903.18-40.45 911.73-43.65 913.63-43.65 913.63-3.75 918.08-2ZM901.63-3.75Q903.13-3.75 904.5-4.17 905.88-4.6 907.58-5.8L907.58-5.8 907.58-17.2Q907.28-19.7 905.25-21.28 903.23-22.85 899.73-22.85L899.73-22.85Q894.08-22.85 894.08-14.8L894.08-14.8Q894.08-10.1 896.03-6.93 897.98-3.75 901.63-3.75L901.63-3.75ZM938.23-5.4Q938.23-6.8 936.68-7.98 935.13-9.15 931.93-10.8L931.93-10.8Q929.33-12.15 927.73-13.15 926.13-14.15 925-15.48 923.88-16.8 923.88-18.35L923.88-18.35Q923.88-20.15 925.38-22.2 926.88-24.25 929.08-25.65 931.28-27.05 933.18-27.05L933.18-27.05Q935.48-27.05 938.5-26.48 941.53-25.9 942.88-25.2L942.88-25.2 942.88-17.5 940.98-17.5Q939.38-20.6 937.28-22.33 935.18-24.05 932.98-24.05L932.98-24.05Q931.43-24.05 930.48-23.23 929.53-22.4 929.53-21.15L929.53-21.15Q929.53-19.6 931.15-18.38 932.78-17.15 936.08-15.5L936.08-15.5Q938.63-14.2 940.18-13.25 941.73-12.3 942.8-11.03 943.88-9.75 943.88-8.2L943.88-8.2Q943.88-6.35 942.3-4.33 940.73-2.3 938.45-0.9 936.18 0.5 934.28 0.5L934.28 0.5Q931.83 0.5 928.45-0.08 925.08-0.65 923.63-1.35L923.63-1.35 923.63-9.05 925.53-9.05Q927.28-5.95 929.68-4.23 932.08-2.5 934.53-2.5L934.53-2.5Q936.18-2.5 937.2-3.35 938.23-4.2 938.23-5.4L938.23-5.4ZM957.37-12.15L954.37-12.15 951.32-35.25 951.32-36.8 958.12-39.3 960.02-39.3 957.37-12.15ZM956.37-7.75Q957.87-7.75 958.85-6.65 959.82-5.55 959.82-3.9L959.82-3.9Q959.82-2.75 959.12-1.73 958.42-0.7 957.37-0.1 956.32 0.5 955.32 0.5L955.32 0.5Q953.82 0.5 952.85-0.6 951.87-1.7 951.87-3.35L951.87-3.35Q951.87-4.5 952.57-5.53 953.27-6.55 954.32-7.15 955.37-7.75 956.37-7.75L956.37-7.75Z" opacity="1" transform="matrix(1,0,0,1,0,0)" fill="#ffffff" class="slogan-text-1" data-fill-palette-color="quaternary" id="text-1"></path></svg></g></svg></g></svg></g></svg></g><g transform="matrix(1,0,0,1,65.22456435425849,0)"><svg viewBox="0 0 83.77510472477591 51.070771579382196" height="51.070771579382196" width="83.77510472477591"><g><svg xmlns="http://www.w3.org/2000/svg" xmlns:xlink="http://www.w3.org/1999/xlink" version="1.1" x="0" y="0" viewBox="0 0 99.99876403808594 60.96099853515625" enable-background="new 0 0 100 100" xml:space="preserve" height="51.070771579382196" width="83.77510472477591" class="icon-icon-0" data-fill-palette-color="quaternary" id="icon-0"><path fill-rule="evenodd" clip-rule="evenodd" d="M0 39.844c2.843-0.592 5.438-1.747 7.792-3.443 1.539-1.107 2.78-2.488 3.789-4.093 2.609-4.148 5.604-8.009 8.778-11.737 1.859-2.183 3.465-4.557 5.098-6.91 0.92-1.325 1.829-2.661 2.993-3.792 0.936-0.909 1.987-1.62 3.306-1.84 1.209-0.202 2.37 0.03 3.491 0.463 1.107 0.428 2.195 0.906 3.293 1.356 0.949 0.389 1.96 0.506 2.963 0.622 2.916 0.336 5.835 0.64 8.753 0.95 0.158 0.017 0.331-0.009 0.484-0.056C63.008 7.636 75.273 3.903 87.54 0.17c0.195-0.06 0.393-0.114 0.589-0.17 0.331 0 0.662 0 0.993 0 0.355 0.126 0.727 0.221 1.064 0.384 0.892 0.431 1.493 1.138 1.781 2.083 2.626 8.611 5.247 17.223 7.864 25.836 0.596 1.961-0.438 3.842-2.434 4.45-5.303 1.617-10.606 3.231-15.91 4.845-7.229 2.2-14.459 4.399-21.688 6.599-2.021 0.615-3.896-0.389-4.503-2.411-0.032-0.106-0.07-0.211-0.12-0.358-0.347 0.397-0.663 0.771-0.991 1.134-0.977 1.083-2.016 1.3-3.348 0.706-0.885-0.395-1.568-1.024-2.121-1.808-0.064-0.091-0.125-0.184-0.212-0.312-0.334 0.229-0.652 0.437-0.958 0.659-0.586 0.423-1.149 0.881-1.752 1.278-0.937 0.616-1.881 0.5-2.744-0.146-1.359-1.02-1.946-2.445-2.025-4.108-0.01-0.215-0.001-0.431-0.001-0.742-0.201 0.292-0.356 0.514-0.507 0.739-1.046 1.563-2.076 3.138-3.142 4.687-1.19 1.73-2.637 3.204-4.446 4.305-1.128 0.687-2.216 1.441-3.363 2.095-0.967 0.551-2.043 0.826-3.156 0.931-0.12 0.011-0.244 0.048-0.354 0.1-3.823 1.798-7.502 3.842-10.886 6.39-1.357 1.022-2.628 2.141-3.752 3.42-0.054 0.062-0.11 0.121-0.187 0.205-0.689-0.63-1.365-1.247-2.077-1.896 3.34-3.779 7.544-6.362 11.91-8.788-1.932-0.688-3.826-1.362-5.72-2.036 0.005-0.021 0.01-0.042 0.016-0.062 0.839 0.045 1.678 0.085 2.516 0.138 1.413 0.089 2.825 0.192 4.238 0.278 0.948 0.058 1.897 0.144 2.845 0.136 1.99-0.016 3.75-0.726 5.345-1.889 0.71-0.518 1.431-1.021 2.157-1.516 1.264-0.861 2.205-2.027 3.049-3.271 1.212-1.787 2.363-3.616 3.581-5.4 0.57-0.834 1.208-1.626 1.861-2.398 0.811-0.959 1.831-1.612 3.043-1.991 2.237-0.698 4.466-1.422 6.687-2.169 1.853-0.624 3.653-1.384 5.317-2.422 0.866-0.541 1.729-1.113 2.354-1.943 1.666-2.213 0.729-4.899-1.948-5.617-0.851-0.228-1.714-0.223-2.585-0.135-2.397 0.244-4.729 0.762-6.965 1.667-3.007 1.218-5.863 2.713-8.472 4.665-1.642 1.228-3.455 2.154-5.415 2.761-1.104 0.342-2.239 0.58-3.35 0.901-2.614 0.755-4.923 2.07-6.95 3.878-1.258 1.122-2.495 2.266-3.742 3.399-0.106 0.097-0.215 0.19-0.362 0.261 0.054-0.092 0.105-0.186 0.163-0.276 0.938-1.461 1.857-2.934 2.819-4.379 0.865-1.301 2.04-2.294 3.301-3.196 1.858-1.329 3.956-2.082 6.151-2.603 1.13-0.268 2.215-0.657 3.265-1.15 0.205-0.097 0.263-0.201 0.224-0.425-0.159-0.895-0.418-1.756-0.932-2.51-1.297-1.907-1.775-4.02-1.654-6.296 0.019-0.357 0.003-0.716 0.003-1.075 0.028-0.003 0.057-0.006 0.086-0.009 0.133 0.576 0.266 1.151 0.397 1.727 0.394 1.721 1.09 3.282 2.309 4.597 0.402 0.434 0.71 0.957 1.115 1.512 0-1.069 0-2.083 0-3.095 0.048-0.005 0.096-0.011 0.144-0.016 0.298 1.334 0.596 2.668 0.894 4 1.238-0.829 2.502-1.675 3.758-2.516-0.238-0.702-0.499-1.428-0.729-2.164-0.312-0.995-0.251-1.976 0.172-2.932 0.016-0.034 0.04-0.065 0.097-0.156-0.011 0.243-0.003 0.418-0.029 0.587-0.108 0.727 0.054 1.405 0.41 2.029 0.397 0.697 0.834 1.371 1.264 2.069 2.102-1.09 4.172-2.062 6.41-2.722-0.149-0.5-0.292-0.982-0.436-1.463-0.099-0.327-0.195-0.653-0.3-0.977-0.224-0.689-0.214-1.381-0.019-2.112-0.587-0.062-1.15-0.113-1.712-0.184-2.244-0.284-4.493-0.541-6.729-0.875-1.223-0.183-2.32-0.789-3.457-1.253-0.733-0.299-1.483-0.574-2.246-0.785-0.862-0.239-1.691-0.057-2.341 0.558-0.673 0.636-1.337 1.302-1.887 2.043-1.335 1.802-2.552 3.692-3.907 5.478-1.599 2.107-3.266 4.165-4.952 6.204-2.259 2.729-4.33 5.595-6.205 8.594-2.153 3.444-5.184 5.79-8.848 7.399-1.458 0.641-2.959 1.152-4.57 1.44-0.138-0.632-0.27-1.254-0.41-1.874C0.133 40.477 0.062 40.255 0 40.031 0 39.968 0 39.907 0 39.844zM54.99 31.133c1.005 3.299 2.005 6.588 3.009 9.875 0.152 0.499 0.498 0.655 1.047 0.488 12.493-3.804 24.986-7.609 37.479-11.413 0.615-0.188 0.771-0.479 0.582-1.097-2.59-8.502-5.181-17.005-7.771-25.507-0.191-0.626-0.471-0.777-1.085-0.59-10.834 3.299-21.668 6.597-32.502 9.896-1.688 0.514-3.377 1.027-5.065 1.544-0.485 0.149-0.666 0.473-0.525 0.947 0.236 0.792 0.478 1.581 0.731 2.367 0.023 0.072 0.156 0.166 0.227 0.157 0.778-0.099 1.554-0.224 2.332-0.328 1.455-0.194 2.892-0.132 4.275 0.399 2.943 1.129 4.483 3.772 3.902 6.786-0.327 1.694-1.268 3.042-2.655 4.053-0.8 0.583-1.643 1.107-2.484 1.628C56.016 30.631 55.507 30.862 54.99 31.133zM52.352 32.119c-0.243 0.156-0.505 0.233-0.616 0.408-1.203 1.882-1.676 3.963-1.508 6.171 0.075 0.983 0.627 1.752 1.495 2.268 0.268 0.159 0.486 0.173 0.691-0.103 0.576-0.779 1.168-1.547 1.738-2.331 0.063-0.086 0.066-0.255 0.033-0.367-0.3-1.02-0.614-2.035-0.924-3.051C52.967 34.147 52.674 33.181 52.352 32.119zM48.527 33.43c-1.171 0.365-2.283 0.707-3.389 1.063-0.102 0.033-0.195 0.147-0.256 0.246-0.589 0.945-1.019 1.961-1.286 3.04-0.27 1.085-0.097 2.09 0.653 2.961 0.176 0.205 0.327 0.244 0.566 0.066 0.803-0.597 1.606-1.197 2.444-1.74 0.341-0.221 0.48-0.419 0.471-0.841C47.694 36.609 47.979 35.038 48.527 33.43z" fill="#ffffff" data-fill-palette-color="quaternary"></path><path fill-rule="evenodd" clip-rule="evenodd" d="M54.18 20.656c-0.78 0.464-1.556 0.936-2.344 1.386-0.216 0.123-0.271 0.239-0.223 0.488 0.227 1.156 0.438 2.313 0.959 3.386 0.482 0.992 1.145 1.342 2.217 1.098 0.449-0.103 0.886-0.272 1.314-0.445 0.199-0.081 0.256-0.014 0.31 0.158-0.696 0.502-1.442 0.855-2.305 0.919-0.997 0.074-1.675-0.43-2.16-1.235-0.809-1.339-1.202-2.825-1.485-4.345-0.075-0.401 0.06-0.572 0.455-0.668 1.081-0.263 2.162-0.524 3.243-0.786C54.168 20.627 54.174 20.641 54.18 20.656z" fill="#ffffff" data-fill-palette-color="quaternary"></path></svg></g></svg></g><g></g></svg></g></svg></g></svg></g><defs></defs></svg><rect width="342.85155851775386" height="342.85155851775386" fill="none" stroke="none" visibility="hidden"></rect></g></svg></g></g></g></g><rect width="224.09800720214844" height="42.920372009277344" x="208.95103454589838" y="203.69567871093744" rx="2.5" ry="2.5" fill="transparent" class="logo-element-hover-target"></rect><rect width="224.08023071289062" height="24.593727111816406" x="208.95988464355463" y="241.9174194335937" rx="2.5" ry="2.5" fill="transparent" class="logo-element-hover-target"></rect><rect width="95.35830688476562" height="62.81668853759763" x="273.32084655761713" y="135.4888534545898" rx="2.5" ry="2.5" fill="transparent" class="logo-element-hover-target"></rect></svg>